<?xml version="1.0" encoding="utf-8"?>
<!-- Generated by IcoMoon.io -->
<!DOCTYPE svg PUBLIC "-//W3C//DTD SVG 1.1//EN" "http://www.w3.org/Graphics/SVG/1.1/DTD/svg11.dtd">
<svg version="1.1" xmlns="http://www.w3.org/2000/svg" xmlns:xlink="http://www.w3.org/1999/xlink" width="25" height="25" viewBox="0 0 768 768">
	<style type="text/css">
    <![CDATA[
    .fil { fill: white; }
     }
    ]]>
  </style>
<g id="icomoon-ignore">
</g>
<path class="fil" d="M480 384c0-52.5-43.5-96-96-96v-64.5c88.5 0 160.5 72 160.5 160.5h-64.5zM607.5 384c0-124.5-99-223.5-223.5-223.5v-64.5c159 0 288 129 288 288h-64.5zM640.5 496.5c18 0 31.5 13.5 31.5 31.5v112.5c0 18-13.5 31.5-31.5 31.5-300 0-544.5-244.5-544.5-544.5 0-18 13.5-31.5 31.5-31.5h112.5c18 0 31.5 13.5 31.5 31.5 0 40.5 6 78 18 114 3 10.5 1.5 24-7.5 33l-70.5 70.5c46.5 91.5 121.5 165 211.5 211.5l70.5-70.5c9-9 22.5-10.5 33-7.5 36 12 73.5 18 114 18z"></path>
</svg>
